<svg xmlns:ns0="http://www.w3.org/2000/svg" xmlns="http://www.w3.org/2000/svg" viewBox="200 35 630 500" width="100%" height="100%"><ns0:path d="M0 0 C0.667543029785179 -0.0017321777343752842 1.3350860595703011 -0.0034643554687505684 2.022857666015625 -0.0052490234375 C14.515330917257188 0.008866975419074663 26.031045730277924 1.8522418162578447 38 5.4375 C38.56332031249997 5.592832031249998 38.56332031249997 5.592832031249998 41.4140625 6.37890625 C75.91892847770225 16.748967049228582 102.81486147906037 42.327241641066564 119.89697265625 73.365234375 C125.16413548112848 83.26069211239898 128.5219881636151 93.52323453396676 131 104.4375 C131.15017578125003 105.06076171875 131.15017578125003 105.06076171875 131.91015625 108.21484375 C135.9160922567778 126.33768919681151 135.74881804241022 146.50596307185918 131 164.4375 C130.82307617187507 165.1245703125 130.64615234374992 165.811640625 130.4638671875 166.51953125 C124.4981815366848 189.39314462618248 114.17503469912458 209.1893139602604 98 226.4375 C97.51273437500004 226.96714355468748 97.02546874999996 227.49678710937496 96.5234375 228.04248046875 C84.31839529098477 241.23061598403956 69.55546305616235 251.42498766471624 53 258.4375 C52.6677311992446 251.82272540243912 52.44168868616896 245.210128102662 52.285888671875 238.5888671875 C52.22089403811049 236.34195592792946 52.13245694564148 234.09558640497494 52.019287109375 231.8505859375 C51.05110524561667 212.1364755894785 51.05110524561667 212.1364755894785 55.764892578125 206.447998046875 C58.403071570947645 203.83986218642096 61.29592092185146 201.76769276307175 64.36534118652344 199.7016143798828 C78.47667170537738 188.78904003647955 85.40931421943924 166.6738349002066 87.73193359375 149.88330078125 C88.44468559193808 143.38025021854645 88.31999607144735 136.95997311588374 88 130.4375 C87.99097656250001 129.491328125 87.98195312500002 128.54515625 87.97265625 127.5703125 C87.2943307490093 109.71678531392553 77.64263740520573 91.45859174279846 66 78.4375 C65.26136718750001 77.604765625 64.52273437500003 76.77203125 63.76171875 75.9140625 C57.29292766796971 69.03236985954221 50.123482745869524 64.12012241969424 42 59.4375 C40.998398437499986 58.85871093750001 39.99679687499997 58.279921875 38.96484375 57.68359375 C20.23552099935813 47.62572056358532 -3.4705032383665184 45.21759425088284 -24.01171875 50.53125 C-24.99785156249999 50.83031249999999 -25.983984374999977 51.12937500000001 -27 51.4375 C-27.9345703125 51.715937499999995 -28.869140625 51.99437499999999 -29.83203125 52.28125 C-52.784932525297165 59.89938032313154 -70.84801769061437 75.82426824561946 -82.28125 96.88671875 C-88.88265527768982 110.52462192595465 -91.35296092268385 123.27722113068893 -91.3125 138.3125 C-91.32861328125 139.5023046875 -91.3447265625 140.692109375 -91.361328125 141.91796875 C-91.3735464092058 164.27742884661623 -81.46370114783053 185.1086567451134 -66.2421875 201.19921875 C-51.11361883616814 216.30143102243147 -33.51906043315023 225.7712446622868 -12.0625 227.5625 C-8.741874999999993 227.85125 -5.421249999999986 228.14 -2 228.4375 C-2 241.6375 -2 254.83749999999998 -2 268.4375 C-40.34267265516576 268.4375 -71.41117329695561 253.44801574595903 -98.43701171875 226.439208984375 C-108.88421753212799 215.6435849858077 -116.43425676637833 202.86947814841594 -123 189.4375 C-123.47050781249999 188.491328125 -123.94101562499998 187.54515625 -124.42578125 186.5703125 C-136.2623456370768 160.69844111524392 -138.12086996862797 126.61985642276855 -130 99.4375 C-129.796328125 98.704990234375 -129.59265625 97.97248046875 -129.3828125 97.2177734375 C-123.20690285049619 75.19226849922339 -111.62546110350473 56.99204257452395 -96 40.4375 C-95.3773828125 39.76203125000001 -94.754765625 39.0865625 -94.11328125 38.390625 C-84.54977622469659 28.365986608696616 -73.23609982908334 20.78288184790003 -61 14.4375 C-60.70230712890623 14.282167968750002 -60.70230712890623 14.282167968750002 -59.19580078125 13.49609375 C-52.150955744386124 9.876168001415287 -45.02281411969 6.917108484132925 -37.4375 4.625 C-36.80223388671874 4.430109863281253 -36.16696777343748 4.235219726562498 -35.512451171875 4.034423828125 C-23.934994912535387 0.7519987059906086 -11.975320709515586 0.021193918201532824 0 0 Z " fill="#04507D" transform="translate(485,44.5625)" />
<ns0:path d="M0 0 C1.1317163085936954 -0.014663085937513642 2.2634326171875045 -0.029326171875027285 3.429443359375 -0.04443359375 C19.015235333609667 0.1435790119998046 32.83896127031073 6.47202900303671 44.08984375 17.15234375 C56.722860169122214 30.476396964698154 59.86166232757341 44.77099774165441 59.65625 62.49609375 C59.35380909553396 72.35415503106941 56.65686170580591 80.43721443221455 51.1328125 88.66015625 C50.375 90.5625 50.375 90.5625 51.015625 92.57421875 C52.501677097884794 94.74778345638902 54.10397954714301 96.48670252687845 56 98.3125 C56.631640625000045 98.92609375 57.26328124999998 99.53968750000001 57.9140625 100.171875 C58.396171874999936 100.63078124999998 58.878281249999986 101.08968749999997 59.375 101.5625 C55.469895106540434 107.06969920872507 51.277823561938476 111.92077355082745 46.375 116.5625 C45.101896879243895 115.62808464533578 43.831612001702865 114.68982888774758 42.5625 113.75 C41.854804687500064 113.22792968750002 41.147109375000014 112.70585937500005 40.41796875 112.16796875 C38.375 110.5625 38.375 110.5625 36.92578125 108.80078125 C35.375 107.5625 35.375 107.5625 33.05859375 107.72265625 C30.092534914098792 108.65089882600984 27.289046254256846 109.76322897337894 24.4375 111 C16.846591761119043 114.28123130325821 10.936654353662561 115.90211433836157 2.6875 115.8125 C1.796274414062509 115.80573242187506 0.9050488281250182 115.79896484375001 -0.01318359375 115.7919921875 C-15.864566861611593 115.54345636962648 -27.15312698225057 111.37140781119467 -39.625 101.5625 C-40.462890625 100.94503906249997 -41.30078125 100.327578125 -42.1640625 99.69140625 C-51.56358392830168 91.56007422075493 -57.883684796632906 78.53395636308437 -58.802001953125 66.181640625 C-59.2524283621658 48.0784469421161 -57.415392923853915 33.195790415402826 -45.30078125 18.80078125 C-39.996887097327885 13.230443435027212 -34.53581875982627 8.932899308337824 -27.625 5.5625 C-26.703320312499955 5.076523437499986 -25.781640625000023 4.590546874999973 -24.83203125 4.08984375 C-16.62840528278025 0.4313322938112947 -8.892819080837853 0.07133115706199078 0 0 Z " fill="#0F7EB4" transform="translate(712.625,399.4375)" />
<ns0:path d="M0 0 C10.560000000000002 0 21.120000000000005 0 32 0 C32 10.560000000000002 32 21.120000000000005 32 32 C42.889999999999986 32 53.77999999999997 32 65 32 C65 42.889999999999986 65 53.78 65 65 C54.110000000000014 65 43.22000000000003 65 32 65 C32 75.56 32 86.12 32 97 C44.180641972384706 93.95483950690382 54.96215876904 90.77295247631139 61.8125 79.6875 C62.210820312500005 78.9901171875 62.60914062500001 78.29273437500001 63.01953125 77.57421875 C63.343085937500064 77.05472656249998 63.666640625000014 76.53523437500002 64 76 C64.33000000000004 76 64.65999999999997 76 65 76 C65 128.14 65 180.27999999999997 65 234 C54.110000000000014 234 43.22000000000003 234 32 234 C32 189.12 32 144.24 32 98 C21.439999999999998 98 10.879999999999995 98 0 98 C0 87.11000000000001 0 76.22 0 65 C-10.889999999999986 65 -21.779999999999973 65 -33 65 C-33 54.110000000000014 -33 43.22 -33 32 C-22.110000000000014 32 -11.220000000000027 32 0 32 C0 21.439999999999998 0 10.879999999999995 0 0 Z " fill="#0C5581" transform="translate(462,136)" />
<ns0:path d="M0 0 C2.8245143126580956 2.338769813028989 5.344466325584563 4.83610796601414 7.83984375 7.5234375 C6.229738484648408 11.597197809925717 3.3016210447391927 14.288508187066952 0.21484375 17.2734375 C-0.30078125 17.78003906250001 -0.81640625 18.286640625000018 -1.34765625 18.80859375 C-2.6139896352694905 20.05147651702373 -3.88647064788222 21.288090260487763 -5.16015625 22.5234375 C-5.610039062499993 22.15992187500001 -6.059921874999986 21.796406250000018 -6.5234375 21.421875 C-18.15700636290046 12.329506550037706 -28.281935944723273 8.303629599682836 -43.16015625 9.5234375 C-53.29000523115781 11.825675904808577 -60.97998806159967 17.03935199158002 -66.91015625 25.515625 C-73.12479217301734 35.49788395134664 -73.5304762140969 47.74402965797378 -70.96875 59.015625 C-67.71633184438508 69.10283493190713 -60.35672451934073 76.93597420206686 -51.16015625 82.0234375 C-42.00773045173685 85.67149434375216 -30.36301191752409 84.25942161737203 -21.16015625 81.5234375 C-15.006601583778433 78.87385701969242 -10.073405551828614 75.01853792507728 -5.16015625 70.5234375 C-4.816621093749973 70.87277343749997 -4.816621093749973 70.87277343749997 -3.078125 72.640625 C-2.177070312500007 73.55070312499998 -1.2760156250000136 74.46078124999997 -0.34765625 75.3984375 C0.5456640625000091 76.30335937500001 1.4389843750000182 77.20828125000003 2.359375 78.140625 C4.83984375 80.5234375 4.83984375 80.5234375 7.83984375 82.5234375 C7.2228965771260505 88.0759620558656 2.4541172493200634 91.13083181279057 -1.59765625 94.4609375 C-15.703986991113538 104.87211085768604 -32.29469403585165 106.23355991305891 -49.19921875 104.09765625 C-63.8686302355876 101.39888190220006 -76.6187928318883 93.38841654306384 -85.48046875 81.37890625 C-91.47759465989003 72.05127314661013 -95.69912996038872 62.673443689487556 -96.16015625 51.5234375 C-96.2465234375 50.42386718749998 -96.332890625 49.324296875000016 -96.421875 48.19140625 C-97.11516241741751 33.47830661369511 -91.61826003203413 19.542892277053454 -82.23828125 8.19921875 C-61.419040364397574 -14.177666070474118 -24.83136568825546 -18.01584689090322 0 0 Z " fill="#06507D" transform="translate(347.16015625,410.4765625)" />
<ns0:path d="M0 0 C0.3300000000000409 0 0.6599999999999682 0 1 0 C1 51.14999999999998 1 102.30000000000001 1 155 C-9.230000000000018 155 -19.45999999999998 155 -30 155 C-30 110.44999999999999 -30 65.89999999999998 -30 20 C-27.029999999999973 19.00999999999999 -24.060000000000002 18.02000000000001 -21 17 C-12.071839156933947 12.847894703224682 -5.263446919959961 8.38252657623255 0 0 Z " fill="#01517F" transform="translate(525,214)" />
<ns0:path d="M0 0 C6.811769651297823 5.708911707754396 10.401605848877807 13.42455926797777 11.3453369140625 22.217620849609375 C11.45949841352001 25.739490295134487 11.450643152488738 29.238550728894836 11.390625 32.76171875 C11.38496520996091 34.033524932861326 11.37930541992182 35.30533111572265 11.37347412109375 36.61567687988281 C11.35501764589344 39.9582396486241 11.319236241888007 43.29965824192493 11.274658203125 46.64190673828125 C11.233361293203075 50.06781252053884 11.215390548991422 53.49383766810536 11.1953125 56.919921875 C11.151434725778358 63.61363119524816 11.082504548177553 70.3066598665065 11 77 C4.069999999999936 77 -2.8600000000000136 77 -10 77 C-10.00934570312495 75.496953125 -10.018691406250014 73.99390625000001 -10.0283203125 72.4453125 C-10.068317979293852 66.8465456115623 -10.134105071425438 61.24832254294904 -10.20751953125 55.64990234375 C-10.235672312530028 53.23102831997744 -10.256915023585293 50.81206327384581 -10.27099609375 48.39306640625 C-10.292503668178938 44.90740551047213 -10.339196927222474 41.422832483973764 -10.390625 37.9375 C-10.391853637695363 36.86322753906251 -10.393082275390611 35.788955078125014 -10.39434814453125 34.68212890625 C-10.517462725498262 28.310855024620764 -11.257722316460331 23.287960811450944 -15 18 C-20.70746945680662 12.700206932965273 -24.8065303945026 12.652288702408327 -32.4375 12.72265625 C-37.07476501412168 13.083671399125706 -40.386089884382386 14.052290486503807 -44 17 C-50.07948186810631 24.19938642275747 -50.30930895164528 31.969326857654607 -50.4140625 40.96484375 C-50.43342864990234 41.99815322875975 -50.45279479980468 43.03146270751955 -50.472747802734375 44.09608459472656 C-50.532232992486286 47.376474045543375 -50.57880452088233 50.65689917828348 -50.625 53.9375 C-50.663208358190616 56.16993665716393 -50.702261735059665 58.40235902221036 -50.7421875 60.634765625 C-50.83948963893954 66.08976678929821 -50.919305499380755 71.54462705024201 -51 77 C-57.93000000000001 77 -64.86000000000001 77 -72 77 C-72 49.610000000000014 -72 22.220000000000027 -72 -6 C-65.39999999999998 -6 -58.80000000000001 -6 -52 -6 C-52 -2.6999999999999886 -52 0.6000000000000227 -52 4 C-50.86562500000002 3.0924999999999727 -49.73124999999999 2.1850000000000023 -48.5625 1.25 C-33.869221488423705 -9.789532522907223 -15.385372656245863 -9.838606984091996 0 0 Z " fill="#034F7D" transform="translate(535,436)" />
<ns0:path d="M0 0 C7.731204942025556 6.426477357554461 13.097597499373364 15.950011661236147 14.25 25.9375 C14.771319295469425 34.15222829224473 13.758527379791758 42.41922704330341 10.25 49.9375 C6.550903872211165 49.37156289840925 4.962049792757966 47.94936586802021 2.4375 45.25 C-1.1162258819209683 41.549591248656384 -4.809770716001935 38.22102440333174 -8.75 34.9375 C-12.33402695083521 36.469980489322666 -14.778501336755312 38.604960104566544 -17.5625 41.3125 C-18.373320312500027 42.083359374999986 -19.184140625000055 42.85421874999997 -20.01953125 43.6484375 C-21.75 45.9375 -21.75 45.9375 -21.53759765625 47.898681640625 C-20.64385408771568 50.21227511267392 -19.73169558502798 51.21991123683404 -17.87890625 52.84765625 C-17.304628906249945 53.36263671874997 -16.730351562500005 53.87761718749999 -16.138671875 54.408203125 C-15.837353515624955 54.67084960937501 -15.837353515624955 54.67084960937501 -14.3125 56 C-13.123774056900402 57.050531753804876 -11.93747840596609 58.10382141427215 -10.75390625 59.16015625 C-10.226115722656232 59.621721191406266 -9.698325195312464 60.08328613281253 -9.154541015625 60.558837890625 C-7.75 61.9375 -7.75 61.9375 -5.75 64.9375 C-13.798332566786371 70.22640425817389 -24.14470763646989 70.06546598972005 -33.44921875 68.4765625 C-42.277526707116635 65.85734373436333 -49.5580310321958 59.409191382601534 -54.75 51.9375 C-59.797900192444445 41.91818295136022 -61.45936353516595 30.959151770447534 -59.1015625 19.89453125 C-55.329616130589216 8.46585613926402 -47.83901067750605 1.0491261929535085 -37.625 -4.875 C-25.122984662845624 -10.038875900128971 -10.83948796674099 -7.616937490142334 0 0 Z " fill="#FAFDFD" transform="translate(735.75,426.0625)" />
<ns0:path d="M0 0 C3.668303572157356 1.6674107146169916 5.893038987743125 3.562326769475632 8 7 C8 7.659999999999997 8 8.319999999999993 8 9 C8.969375000000014 9.074765624999998 9.938750000000027 9.149531249999995 10.9375 9.2265625 C20.086631623249673 10.074002831577118 27.979199300290247 12.082900287255796 36.4765625 15.5625 C43.125815394651 18.275277234181345 43.125815394651 18.275277234181345 46 19 C46.99000000000001 18.340000000000003 47.98000000000002 17.680000000000007 49 17 C53.203593622975404 16.18243359828533 57.2701599559997 15.912477771944808 60.98828125 18.25 C64.23795238138723 21.600496250022104 65.34542783317681 24.265097641941438 65.375 28.9375 C65.27987995734509 30.294092989292096 65.16528674056462 31.650158285388756 65 33 C65.54269531249997 33.22945312499999 66.08539062499995 33.45890625 66.64453125 33.6953125 C69.68200410105283 35.37776014884189 72.14032466764945 37.545420512710294 74.6875 39.875 C75.2149682617187 40.35171142578125 75.7424365234375 40.82842285156249 76.285888671875 41.319580078125 C80.92310221488322 45.646475924538294 84.37322253143111 50.42659906633982 87.76953125 55.76171875 C90 58 90 58 93.5546875 58.21875 C94.1231640625 58.18265625000001 94.1231640625 58.18265625000001 97 58 C100.70390021391086 60.02666238119647 102.65363010679289 61.48044516018925 105 65 C105.265625 67.41015625 105.265625 67.41015625 105.25 70.0625 C105.25257812500001 70.50142578124999 105.25257812500001 70.50142578124999 105.265625 72.72265625 C105 75 105 75 103 77 C103.37236255563948 81.34866270336147 104.64324777508114 85.48729344309811 105.815673828125 89.676513671875 C108.08303438541554 97.78902135259818 109.81397548489508 105.52742890295099 110 114 C110.90750000000003 114.20625000000001 111.81500000000005 114.4125 112.75 114.625 C116.8919118932098 116.37734733943489 118.03255026909915 117.98942939470214 120 122 C120.66061986228863 125.63340924258765 120.77090288659042 127.81779221964948 118.71875 130.96484375 C115.59811297350518 134.70501900969603 113.7629228605366 136.83048818648686 108.75 137.3125 C104.33953679269632 136.94496139939136 102.3996936944385 135.76719254198483 99 133 C96.3182344405933 128.9773516608899 96.18783757261849 125.72823274554764 97 121 C98.4084095930591 118.42402409001821 99.80375716160415 117.039368349939 102 115 C102.65999999999997 115 103.31999999999994 115 104 115 C103.23673371239227 111.20677039025088 102.46298159492915 107.41574957291999 101.6875 103.625 C101.47416015625004 102.56410156250001 101.26082031249996 101.503203125 101.041015625 100.41015625 C99.68648351866545 93.81944779231253 98.06355901521238 87.40501455308436 96 81 C95.13374999999996 81.103125 94.26750000000004 81.20625000000001 93.375 81.3125 C88.71761094646911 80.88126027282121 87.31210851149399 79.23508273215688 84 76 C82.8303104659276 73.66062093185533 82.86635778631694 72.22630631858664 82.875 69.625 C82.87242187499999 68.854140625 82.86984374999997 68.08328125 82.8671875 67.2890625 C83 65 83 65 83.75 63.03515625 C84 61 84 61 82.4453125 58.51953125 C68.27680311890833 41.98960363872641 68.27680311890833 41.98960363872641 62 38 C59.625 38.8125 59.625 38.8125 57 40 C53.080802916102925 40.50032303198685 51.33679677697967 40.17830417604807 47.8125 38.3125 C43.00325004994272 34.35822781884181 41.90439227772276 31.023750400245234 41 25 C13.939131536566094 15.48534388764591 13.939131536566094 15.48534388764591 8 16 C5.502894605966276 17.73268537545195 4.62249494601366 19.3307341210743 3 22 C-0.6528819252657172 23.217627308421896 -3.1575413588322476 23.390758505881465 -7 23 C-9.975517948510628 21.22396701514286 -12.427551884854893 19.144896230290215 -14 16 C-25.58320467976921 16.18546615935584 -37.49367098730892 17.74683549365446 -48 23 C-48.421875 24.890624999999943 -48.421875 24.890624999999943 -48.75 27.25 C-49.442378786285815 30.589396146163125 -50.1132791678865 32.70691316555845 -52.625 35.0625 C-57.02026454454625 37.585707423720976 -58.99252617072915 37.55638598103009 -64 37 C-65.68125321329791 36.37102475804076 -67.3518622958519 35.71124140092353 -69 35 C-88.75444862555008 50.04700554882328 -88.75444862555008 50.04700554882328 -91 58 C-90.67000000000002 58.66 -90.33999999999997 59.31999999999999 -90 60 C-89.45275300810289 63.109357908506425 -89.36541353823878 65.8998890884451 -90 69 C-92.66090203240111 72.72218665804084 -95.81439638450559 74.6206068430418 -100.125 76 C-105.07287304668267 76 -107.1964797070537 74.74995227341657 -110.8125 71.375 C-113.16493267169227 68.31310350668623 -113.73526318423063 65.79522246825495 -113.5 61.96484375 C-112.59604210179822 58.41257169691028 -110.59890985236797 56.5370310463592 -108 54 C-105.71223704404531 52.856118522022655 -104.31551469469849 52.92169414591865 -101.77734375 52.84765625 C-97.08559572674261 52.360750186398604 -95.11771432037784 50.84892521110774 -92.093017578125 47.338623046875 C-91.58794677734375 46.71125244140626 -91.08287597656249 46.08388183593749 -90.5625 45.4375 C-89.4586598894121 44.156667366143495 -88.34924941534672 42.88061465628033 -87.234375 41.609375 C-86.69361328125001 40.98998046874999 -86.15285156250002 40.37058593750001 -85.595703125 39.732421875 C-81.73917967822268 35.5454741426971 -77.10296153401896 31.55148076700948 -72 29 C-71.76171875 27.109375000000057 -71.76171875 27.109375000000057 -71.6875 24.75 C-71.36347616183775 20.91062320064347 -71.10663372992093 20.12796047590514 -68.5 17 C-67.67500000000001 16.340000000000003 -66.85000000000002 15.680000000000007 -66 15 C-65.67000000000002 14.670000000000002 -65.34000000000003 14.340000000000003 -65 14 C-63.35769635659415 13.875451399177336 -61.70947723803613 13.82431475780514 -60.0625 13.8125 C-59.16660156249998 13.798320312499996 -58.27070312500001 13.784140624999992 -57.34765625 13.76953125 C-55 14 -55 14 -53 16 C-48.852189551700405 15.619198193305834 -45.15561143382496 14.46113112157245 -41.25 13.0625 C-31.99858593030808 9.925460703865255 -23.77427323827311 8.66551916675111 -14 9 C-13.715117187500027 8.222695312500008 -13.430234374999998 7.445390625000002 -13.13671875 6.64453125 C-10.508560297889062 0.5302244730959345 -6.330990803252121 -0.7913738504065151 0 0 Z " fill="#F0F6F8" transform="translate(490,56)" />
<ns0:path d="M0 0 C7.259999999999991 0 14.519999999999982 0 22 0 C22 38.610000000000014 22 77.22000000000003 22 117 C14.740000000000009 117 7.480000000000018 117 0 117 C0 78.38999999999999 0 39.77999999999997 0 0 Z " fill="#0A5380" transform="translate(372,397)" />
<ns0:path d="M0 0 C7.259999999999991 0 14.519999999999982 0 22 0 C22 36.95999999999998 22 73.92000000000002 22 112 C14.740000000000009 112 7.480000000000018 112 0 112 C0 75.03999999999996 0 38.079999999999984 0 0 Z " fill="#0E7EB3" transform="translate(612,401)" />
<ns0:path d="M0 0 C7.590000000000032 0 15.17999999999995 0 23 0 C23 26.069999999999993 23 52.139999999999986 23 79 C15.409999999999968 79 7.82000000000005 79 0 79 C0 52.93000000000001 0 26.860000000000014 0 0 Z " fill="#0F7DB2" transform="translate(596,290)" />
<ns0:path d="M0 0 C6.930000000000007 0 13.860000000000014 0 21 0 C21 27.389999999999986 21 54.77999999999997 21 83 C14.069999999999993 83 7.139999999999986 83 0 83 C0 55.610000000000014 0 28.220000000000027 0 0 Z " fill="#04507D" transform="translate(418,430)" />
<ns0:path d="M0 0 C7.590000000000032 0 15.17999999999995 0 23 0 C23 18.480000000000018 23 36.95999999999998 23 56 C15.409999999999968 56 7.82000000000005 56 0 56 C0 37.51999999999998 0 19.04000000000002 0 0 Z " fill="#0B6795" transform="translate(565,313)" />
<ns0:path d="M0 0 C-1.2652585144279556 8.345322116440002 -2.5904752520884813 16.677806009671315 -4 25 C-6.934468862678386 23.58208437307559 -9.433324089225607 22.016673929894125 -12 20 C-13.024384551884168 20.996361874173033 -14.044227131883872 21.997392868316354 -15.0625 23 C-15.630976562499995 23.55687499999999 -16.19945312499999 24.113749999999982 -16.78515625 24.6875 C-18.64810258565251 26.632586826642523 -20.402061060908068 28.614752394383345 -22.15625 30.65625 C-26.362613366974756 35.494942500572336 -30.882047695950405 39.99226798600091 -35.4375 44.5 C-36.26443359375003 45.32242187500003 -37.091367187500055 46.14484375000001 -37.943359375 46.9921875 C-39.959949591193435 48.99712112534837 -41.978852363432225 50.99966253234987 -44 53 C-52.29002932748358 49.14983746298361 -59.11844494167258 40.57482681464603 -64 33 C-62.35000000000002 31.019999999999982 -60.700000000000045 29.04000000000002 -59 27 C-54.89552608090435 27.5177662053905 -53.0430047664762 29.646274435002738 -50.25 32.5625 C-49.45078124999998 33.388789062499995 -48.651562499999955 34.21507812499999 -47.828125 35.06640625 C-47.22484374999999 35.70449218750002 -46.62156249999998 36.34257812499999 -46 37 C-42.51047992265899 35.50279556709978 -40.23761707449353 33.49524754682801 -37.55859375 30.82421875 C-36.72779296875001 29.995996093750023 -35.89699218750002 29.16777343749999 -35.041015625 28.314453125 C-34.18185546874997 27.44755859374999 -33.322695312499945 26.580664062499977 -32.4375 25.6875 C-31.57447265625001 24.832207031249993 -30.711445312500018 23.976914062499986 -29.822265625 23.095703125 C-28.99275390624996 22.263613281250002 -28.163242187500032 21.431523437500005 -27.30859375 20.57421875 C-26.553767089843745 19.817136230468748 -25.79894042968749 19.060053710937495 -25.021240234375 18.280029296875 C-22.98663692491948 15.984925986450378 -21.48713963874684 13.675435307239752 -20 11 C-20.825000000000045 10.009999999999991 -20.825000000000045 10.009999999999991 -25 5 C-7.466666666666697 0 -7.466666666666697 0 0 0 Z " fill="#094E79" transform="translate(692,316)" />
<ns0:path d="M0 0 C7.919999999999959 0 15.840000000000032 0 24 0 C24 11.220000000000027 24 22.439999999999998 24 34 C16.08000000000004 34 8.159999999999968 34 0 34 C0 22.779999999999973 0 11.560000000000002 0 0 Z " fill="#115781" transform="translate(534,336)" />
<ns0:path d="M0 0 C4.838317556145739 2.3295603048109115 7.600619603197856 5.201239206395769 10 10 C10.865021251544817 15.363131759577868 10.408163496027782 17.950364848204686 7.25 22.375 C4.5846988058385705 25.753740402699577 2.1765285855611864 27.617799971112163 -2.11328125 28.37109375 C-7.326022369256407 28.528494458751993 -10.513791207449913 27.77926092001269 -14.55859375 24.41015625 C-18.00744365226558 21.036078161333705 -19.18185917817243 18.331799082219618 -19.4375 13.5625 C-19.27221509686899 9.047216964467339 -18.028581796428966 6.437849606757197 -15 3 C-10.630621912394304 -0.8553336067109285 -5.544367750660513 -0.7920525358086365 0 0 Z " fill="#0A5380" transform="translate(583,487)" />
<ns0:path d="M0 0 C3.565184092657546 1.644525536716401 7.202080426229031 3.4041608524581193 9 7 C10.030378078252 16.00844834128901 10.030378078252 16.00844834128901 7.953125 20.0234375 C5.378635180656204 23.127969340973436 3.406393828716091 24.852623401182427 -0.609375 25.2734375 C-10.131177067121143 25.58135647231984 -10.131177067121143 25.58135647231984 -13.6875 22.625 C-17.4024186881 18.408065272967576 -17.50665181857306 15.284342876330754 -17.4921875 9.7734375 C-16.782775768011277 5.775958692761947 -14.938809620848644 4.310345944060998 -11.7265625 2.0234375 C-7.861628802282894 -0.2675412981943168 -4.429321109540751 -0.7111649949000594 0 0 Z " fill="#064F7C" transform="translate(432,393)" />
<ns0:path d="M0 0 C0.3300000000000409 0 0.6599999999999682 0 1 0 C1 51.14999999999998 1 102.30000000000001 1 155 C-9.230000000000018 155 -19.45999999999998 155 -30 155 C-30.022546510908626 137.4154558382612 -30.040978872695916 119.83092394957475 -30.051812171936035 102.24636936187744 C-30.05697525967753 94.08212835905135 -30.064018198207805 85.91789695340105 -30.075439453125 77.753662109375 C-30.085385903343422 70.64028715797582 -30.091853333876315 63.52691915443904 -30.09408849477768 56.413537442684174 C-30.09539566872718 52.6447427638588 -30.098481937023337 48.875967967303495 -30.105730056762695 45.10717964172363 C-30.113743159929925 40.90681184237971 -30.1139911638881 36.70647892467059 -30.113525390625 32.506103515625 C-30.117120666503922 31.247349090576165 -30.120715942382787 29.98859466552733 -30.124420166015625 28.691696166992188 C-30.123045501708987 27.554410705566397 -30.12167083740235 26.417125244140635 -30.120254516601563 25.245376586914063 C-30.121176309585564 24.250761957168578 -30.122098102569566 23.256147327423093 -30.123047828674316 22.231392860412598 C-30 20 -30 20 -29 19 C-27.33382884892825 18.959361679242164 -25.666119051515807 18.957278998679072 -24 19 C-24.649295997619618 19.384202623367315 -25.298591995239235 19.76840524673463 -25.96756362915039 20.164250373840332 C-28 22 -28 22 -28.507808685302734 24.430636405944824 C-28.511495857238742 25.401284418106087 -28.515183029174807 26.37193243026735 -28.51898193359375 27.371994018554688 C-28.532894744873033 28.486786346435537 -28.546807556152316 29.601578674316414 -28.561141967773438 30.750152587890625 C-28.556111602783176 31.973664245605477 -28.55108123779297 33.19717590332033 -28.5458984375 34.457763671875 C-28.556236114501928 35.74567306518554 -28.566573791503913 37.033582458496085 -28.577224731445313 38.36051940917969 C-28.60513119657236 41.89337209543885 -28.608488421691504 45.4258750959998 -28.607504844665527 48.95882201194763 C-28.610630012249487 52.65046924933176 -28.636239857909175 56.34195805955676 -28.65948486328125 60.03352355957031 C-28.70007900810947 67.02453347050886 -28.720393518927153 74.01545002931135 -28.733458757400513 81.00655966997147 C-28.749317312820438 88.96544918833342 -28.78772801738529 96.92417957483912 -28.828052043914795 104.88297688961029 C-28.910497758218412 121.25529498332332 -28.961583251542038 137.62751040072442 -29 154 C-19.430000000000007 154 -9.860000000000014 154 0 154 C0 103.18 0 52.360000000000014 0 0 Z " fill="#00426D" transform="translate(525,214)" />
<ns0:path d="M0 0 C10.560000000000002 0 21.120000000000005 0 32 0 C32 10.889999999999986 32 21.78 32 33 C31.670000000000016 33 31.339999999999975 33 31 33 C31 22.439999999999998 31 11.879999999999995 31 1 C26.56562500000001 1.1443749999999966 22.131250000000023 1.2887499999999932 17.5625 1.4375 C16.86225708007811 1.4590515136718807 16.86225708007811 1.4590515136718807 13.318603515625 1.568115234375 C12.22475341796877 1.606223144531242 11.130903320312484 1.6443310546875125 10.00390625 1.68359375 C8.87799072265625 1.7202514648437557 7.7520751953125 1.7569091796875114 6.592041015625 1.794677734375 C4 2 4 2 3 3 C1.5744531393876855 12.574043113248024 1.8970868385309245 22.34903241334422 2 32 C1.339999999999975 32 0.6800000000000068 32 0 32 C0 21.439999999999998 0 10.879999999999995 0 0 Z " fill="#01476A" transform="translate(462,136)" />
<ns0:path d="M0 0 C0.9397265625000273 0.0032226562499886313 1.8794531250000546 0.006445312499977263 2.84765625 0.009765625 C3.7564453124999773 -0.00634765625 4.6652343749999545 -0.0224609375 5.6015625 -0.0390625 C12.143956026942305 -0.04371569596509062 17.69682235239793 1.1182724049129433 23.84765625 3.322265625 C23.84765625 3.982265625000025 23.84765625 4.642265624999993 23.84765625 5.322265625 C20.37824078681058 4.864040941182509 17.17370576359542 4.430948796198493 13.84765625 3.322265625 C12.07598649791396 3.1739061446152164 10.299980131633333 3.074565443626682 8.5234375 3.005859375 C7.4954101562500455 2.9639648437499773 6.467382812499977 2.9220703125000114 5.408203125 2.87890625 C4.872275390624964 2.8592480468749955 4.872275390624964 2.8592480468749955 2.16015625 2.759765625 C1.0766992187500364 2.7165820312500273 -0.006757812500040927 2.6733984374999977 -1.123046875 2.62890625 C-3.7993516607143647 2.5227972496853113 -6.475749014071766 2.420742019519537 -9.15234375 2.322265625 C-6.271669296375649 -0.5584088286244082 -3.9421902317445756 0.031197188884334537 0 0 Z " fill="#CDEAF1" transform="translate(712.15234375,397.677734375)" />
<ns0:path d="M0 0 C-1.6123279987906471 4.030819996976547 -4.462345956567333 6.759441368093434 -7.5 9.75 C-7.998867187500025 10.256601562499995 -8.497734374999993 10.763203125000004 -9.01171875 11.28515625 C-12.746588611859863 15 -12.746588611859863 15 -15 15 C-13.38767200120941 10.969180003023453 -10.537654043432667 8.240558631906566 -7.5 5.25 C-7.001132812499975 4.743398437500005 -6.502265625000007 4.236796874999996 -5.98828125 3.71484375 C-2.2534113881401368 0 -2.2534113881401368 0 0 0 Z " fill="#0C4C73" transform="translate(415,96)" />
<ns0:path d="M0 0 C0.660000000000025 0.6599999999999966 1.3199999999999932 1.3199999999999932 2 2 C0.25311063210915563 3.7739962718753617 -1.497334510637529 5.544225530452337 -3.25 7.3125 C-3.741132812499984 7.81201171875 -4.232265625000025 8.3115234375 -4.73828125 8.826171875 C-7.351401964269087 11.456713394030857 -9.956579109696293 13.876851617002416 -13 16 C-13.660000000000025 15.670000000000002 -14.319999999999993 15.340000000000003 -15 15 C-10.050000000000011 10.049999999999997 -5.100000000000023 5.099999999999994 0 0 Z " fill="#0F4F75" transform="translate(397,77)" />
<ns0:path d="M0 0 C0.660000000000025 0.3299999999999983 1.3199999999999932 0.6599999999999966 2 1 C-2.6200000000000045 5.6200000000000045 -7.240000000000009 10.239999999999995 -12 15 C-12.660000000000025 14.670000000000002 -13.319999999999993 14.340000000000003 -14 14 C-12.609198915888953 12.412244513999582 -11.212115955869535 10.829990605973435 -9.8125 9.25 C-9.423847656250018 8.809140624999998 -9.423847656250018 8.809140624999998 -7.45703125 6.578125 C-5.1154475364403424 4.121137319635352 -2.69841735141091 2.051372338195165 0 0 Z " fill="#DCEDF1" transform="translate(427,111)" />
<ns0:path d="M0 0 C0.9900000000000091 0.3299999999999841 1.9800000000000182 0.660000000000025 3 1 C2.669999999999959 1.660000000000025 2.340000000000032 2.319999999999993 2 3 C1.3400000000000318 2.670000000000016 0.67999999999995 2.339999999999975 0 2 C-0.20624999999995453 2.5362499999999955 -0.41250000000002274 3.072499999999991 -0.625 3.625 C-2.5325042603870997 6.9197800861232395 -5.048193839979035 9.593636282591547 -8 12 C-8.659999999999968 12 -9.32000000000005 12 -10 12 C-8.522785779206174 8.547983610355573 -6.5620599920367795 6.350380637454975 -3.875 3.75 C-3.150546875000032 3.0435937500000136 -2.42609374999995 2.3371875000000273 -1.6796875 1.609375 C-1.1253906250000227 1.078281249999975 -0.5710937500000455 0.5471875000000068 0 0 Z " fill="#177AA5" transform="translate(725,460)" />
<ns0:path d="M0 0 C0.9900000000000091 0.3299999999999841 1.9800000000000182 0.660000000000025 3 1 C2.541093749999959 1.4962890625000114 2.082187500000032 1.9925781250000227 1.609375 2.50390625 C-2.2571929250784706 6.784749309908307 -5.335176151138626 10.883538210186202 -8 16 C-8.6875 14.3125 -8.6875 14.3125 -9 12 C-7.6875 9.25 -7.6875 9.25 -6 7 C-5.340000000000032 7 -4.67999999999995 7 -4 7 C-3.9484374999999545 6.680312500000014 -3.9484374999999545 6.680312500000014 -3.6875 5.0625 C-3.46062500000005 4.3818749999999795 -3.2337499999999864 3.701250000000016 -3 3 C-2.009999999999991 2.670000000000016 -1.0199999999999818 2.339999999999975 0 2 C0 1.339999999999975 0 0.6800000000000068 0 0 Z " fill="#D7F2F7" transform="translate(668,415)" />
<ns0:path d="M0 0 C4.129695724756402 6.1945435871346035 4.3006265180163155 12.78496356760968 4 20 C3.669999999999959 20 3.340000000000032 20 3 20 C2.855625000000032 18.865625000000023 2.71124999999995 17.73124999999999 2.5625 16.5625 C2 13 2 13 1 12 C0.7657222222179598 9.984054183776607 0.586638757773926 7.961525998360855 0.4375 5.9375 C0.3537109374999545 4.832773437500009 0.26992187500002274 3.728046875000018 0.18359375 2.58984375 C0.1533007812499818 2.162519531249984 0.1533007812499818 2.162519531249984 0 0 Z " fill="#BBE0EC" transform="translate(746,441)" />
<ns0:path d="M0 0 C0 3.7791047795807913 -0.9970396177277507 4.461061012167704 -3.5 7.1875 C-4.149687500000027 7.902929687499977 -4.799375000000055 8.618359375000011 -5.46875 9.35546875 C-5.974062499999945 9.898164062499973 -6.4793750000000045 10.440859375000002 -7 11 C-7.330000000000041 10.009999999999991 -7.659999999999968 9.019999999999982 -8 8 C-5.360000000000014 5.360000000000014 -2.7200000000000273 2.7200000000000273 0 0 Z " fill="#05426C" transform="translate(664,337)" />
<ns0:path d="M0 0 C-1.4084471771163862 3.215243050790889 -3.1034478568154213 5.321838676933339 -5.625 7.75 C-5.940820312500023 8.056796874999975 -5.940820312500023 8.056796874999975 -7.5390625 9.609375 C-7.780117187500025 9.83882812500002 -7.780117187500025 9.83882812500002 -9 11 C-9.329999999999984 10.009999999999991 -9.660000000000025 9.019999999999982 -10 8 C-8.714515914877211 6.660704953174388 -7.421418450542944 5.328713572086713 -6.125 4 C-5.765351562499973 3.628750000000025 -5.765351562499973 3.628750000000025 -3.9453125 1.75 C-2 0 -2 0 0 0 Z " fill="#09456C" transform="translate(274,412)" />
<ns0:path d="M0 0 C0.660000000000025 0.3299999999999841 1.3199999999999932 0.660000000000025 2 1 C-0.6399999999999864 3.9700000000000273 -3.2799999999999727 6.939999999999998 -6 10 C-6.660000000000025 9.670000000000016 -7.319999999999993 9.339999999999975 -8 9 C-5.360000000000014 6.029999999999973 -2.7200000000000273 3.0600000000000023 0 0 Z " fill="#D7E8ED" transform="translate(288,426)" />
<ns0:path d="M0 0 C1.32000000000005 1.3199999999999932 2.6399999999999864 2.6399999999999864 4 4 C-0.43076923076921503 7.076923076923094 -0.43076923076921503 7.076923076923094 -3.3125 6.6875 C-3.869374999999991 6.460624999999993 -4.426249999999982 6.233749999999986 -5 6 C-1.25 4 -1.25 4 1 4 C0.6699999999999591 2.680000000000007 0.34000000000003183 1.3600000000000136 0 0 Z " fill="#D7F5F8" transform="translate(726,487)" />
<ns0:path d="M0 0 C0.660000000000025 0.3299999999999841 1.3199999999999932 0.660000000000025 2 1 C-0.6399999999999864 3.6399999999999864 -3.2799999999999727 6.279999999999973 -6 9 C-6 6 -6 6 -3.5625 3.375 C-2.716875000000016 2.5912500000000023 -1.871249999999975 1.8075000000000045 -1 1 C-0.6700000000000159 0.6700000000000159 -0.339999999999975 0.339999999999975 0 0 Z " fill="#CFE2E8" transform="translate(494,450)" />
<ns0:path d="M0 0 C0.6599999999999682 0 1.32000000000005 0 2 0 C1.5016827604711125 3.6875475725140063 0.8993235689316634 5.604906616969515 -2 8 C-2.659999999999968 7.670000000000016 -3.32000000000005 7.339999999999975 -4 7 C-3.340000000000032 6.030624999999986 -2.67999999999995 5.061249999999973 -2 4.0625 C0 1 0 1 0 0 Z " fill="#D3EDF1" transform="translate(771,500)" />
</svg>